<svg width="120" height="86" viewBox="0 0 120 86" fill="none" xmlns="http://www.w3.org/2000/svg">
<g filter="url(#filter0_b_1_7)">
<path d="M0 60C0 26.8629 26.8629 0 60 0C93.1371 0 120 26.8629 120 60V86H0V60Z" fill="url(#paint0_linear_1_7)" fill-opacity="0.05"/>
<path d="M0.5 60C0.5 27.1391 27.1391 0.5 60 0.5C92.8609 0.5 119.5 27.1391 119.5 60V85.5H0.5V60Z" stroke="url(#paint1_linear_1_7)"/>
</g>
<mask id="mask0_1_7" style="mask-type:alpha" maskUnits="userSpaceOnUse" x="49" y="24" width="22" height="40">
<rect x="49" y="24" width="22" height="40" fill="#D9D9D9"/>
</mask>
<g mask="url(#mask0_1_7)">
<path opacity="0.3" d="M47 32L60 42L73 32" stroke="url(#paint2_linear_1_7)" stroke-width="5"/>
<path d="M47 46L60 56L73 46" stroke="url(#paint3_linear_1_7)" stroke-width="5"/>
</g>
<defs>
<filter id="filter0_b_1_7" x="-4" y="-4" width="128" height="94" filterUnits="userSpaceOnUse" color-interpolation-filters="sRGB">
<feFlood flood-opacity="0" result="BackgroundImageFix"/>
<feGaussianBlur in="BackgroundImageFix" stdDeviation="2"/>
<feComposite in2="SourceAlpha" operator="in" result="effect1_backgroundBlur_1_7"/>
<feBlend mode="normal" in="SourceGraphic" in2="effect1_backgroundBlur_1_7" result="shape"/>
</filter>
<linearGradient id="paint0_linear_1_7" x1="60" y1="0" x2="60" y2="86" gradientUnits="userSpaceOnUse">
<stop stop-color="white"/>
<stop offset="1" stop-color="white" stop-opacity="0"/>
</linearGradient>
<linearGradient id="paint1_linear_1_7" x1="60" y1="0" x2="60" y2="86" gradientUnits="userSpaceOnUse">
<stop stop-color="white" stop-opacity="0.2"/>
<stop offset="1" stop-color="white" stop-opacity="0"/>
</linearGradient>
<linearGradient id="paint2_linear_1_7" x1="60" y1="32" x2="60" y2="42" gradientUnits="userSpaceOnUse">
<stop stop-color="white" stop-opacity="0.1"/>
<stop offset="1" stop-color="white"/>
</linearGradient>
<linearGradient id="paint3_linear_1_7" x1="60" y1="46" x2="60" y2="56" gradientUnits="userSpaceOnUse">
<stop stop-color="white" stop-opacity="0.1"/>
<stop offset="1" stop-color="white"/>
</linearGradient>
</defs>
</svg>
