<svg width="40" height="40" viewBox="0 0 40 40" fill="none" xmlns="http://www.w3.org/2000/svg">
<path fill-rule="evenodd" clip-rule="evenodd" d="M5.5 20C5.5 11.9919 11.9919 5.5 20 5.5C28.0081 5.5 34.5 11.9919 34.5 20H37.5C37.5 10.335 29.665 2.5 20 2.5C10.335 2.5 2.5 10.335 2.5 20C2.5 29.665 10.335 37.5 20 37.5V34.5C11.9919 34.5 5.5 28.0081 5.5 20Z" fill="#F7ED00"/>
<rect x="14.3438" y="20" width="8" height="8" transform="rotate(-45 14.3438 20)" fill="#F7ED00"/>
<rect x="27" y="31" width="10" height="6" stroke="#F7ED00" stroke-width="3"/>
<path d="M29 29C29 27.3431 30.3431 26 32 26V26C33.6569 26 35 27.3431 35 29V31H29V29Z" stroke="#F7ED00" stroke-width="3"/>
</svg>
