<svg width="49" height="46" viewBox="0 0 49 46" fill="none" xmlns="http://www.w3.org/2000/svg">
<g clip-path="url(#clip0_1_128)">
<path d="M37.7227 19.2599C37.2805 21.9453 35.8422 23.5472 33.4077 24.0658C34.9816 24.9189 36.041 25.9961 36.5858 27.2975C37.1307 28.599 37.042 30.2236 36.3197 32.1715C35.9457 33.1651 35.4714 34.0009 34.8969 34.6789C34.3224 35.3569 33.6874 35.8723 32.992 36.2252C32.2966 36.578 31.4869 36.8117 30.5627 36.9261C29.6385 37.0405 28.6988 37.0545 27.7437 36.968C26.7886 36.8815 25.714 36.7092 24.5199 36.4508L23.0467 41.9488L19.7264 41.0592L21.1765 35.6474C20.0265 35.3393 19.1517 35.0971 18.5518 34.921L17.096 40.3543L13.7756 39.4646L15.2488 33.9666C14.99 33.8973 14.6029 33.7897 14.0874 33.6439C13.5718 33.498 13.1775 33.3885 12.9044 33.3154L8.59225 32.1599L10.3179 28.3934L12.7111 29.0346C13.4298 29.2272 13.9449 28.9724 14.2563 28.2701L16.5787 19.6027L16.9237 19.6951C16.8413 19.6576 16.7282 19.6196 16.5845 19.5811L18.2426 13.3931C18.3176 12.3656 17.8089 11.7055 16.7165 11.4128L14.3232 10.7716L15.2707 7.23558L19.8358 8.48191C20.7558 8.7284 21.4548 8.90801 21.933 9.02074L23.3889 3.5874L26.7092 4.47709L25.2823 9.80262C26.4686 10.0897 27.3493 10.3103 27.9242 10.4643L29.3397 5.18191L32.66 6.0716L31.2042 11.5049C32.3127 11.9098 33.2756 12.3411 34.0927 12.7989C34.9098 13.2566 35.6353 13.7976 36.2691 14.4219C36.9029 15.0462 37.3456 15.7657 37.5972 16.5803C37.8489 17.3949 37.8907 18.2881 37.7227 19.2599ZM29.9386 29.7684C30.0772 29.251 30.0927 28.7621 29.9849 28.3019C29.8771 27.8416 29.6998 27.4398 29.4529 27.0963C29.206 26.7529 28.8515 26.4229 28.3894 26.1065C27.9272 25.7901 27.4921 25.531 27.084 25.3293C26.6759 25.1275 26.1614 24.9203 25.5405 24.7077C24.9196 24.4951 24.4295 24.3407 24.0701 24.2444C23.7108 24.1481 23.2453 24.0311 22.6737 23.8933C22.1021 23.7556 21.7587 23.6713 21.6438 23.6405L19.6911 30.928C19.806 30.9588 20.071 31.0337 20.4859 31.1526C20.9008 31.2714 21.2448 31.3675 21.5179 31.4406C21.7911 31.5138 22.1749 31.6051 22.6693 31.7145C23.1638 31.8239 23.592 31.9078 23.9538 31.9662C24.3155 32.0246 24.7416 32.0733 25.2318 32.1123C25.7221 32.1512 26.1479 32.1574 26.5093 32.131C26.8708 32.1046 27.2526 32.0452 27.6548 31.9527C28.057 31.8602 28.3987 31.7206 28.6798 31.5341C28.9609 31.3475 29.214 31.1072 29.4391 30.8132C29.6642 30.5191 29.8307 30.1709 29.9386 29.7684ZM31.1577 19.0953C31.2848 18.621 31.3076 18.1764 31.2262 17.7618C31.1447 17.3471 31.0064 16.9865 30.8112 16.68C30.616 16.3735 30.325 16.0798 29.938 15.799C29.5511 15.5182 29.1876 15.2937 28.8475 15.1255C28.5074 14.9573 28.0808 14.7814 27.5677 14.5977C27.0546 14.414 26.6426 14.2844 26.3317 14.2087C26.0207 14.1331 25.6307 14.0363 25.1616 13.9183C24.6925 13.8003 24.4077 13.7279 24.307 13.7009L22.5334 20.3201C22.6053 20.3393 22.8523 20.4094 23.2744 20.5302C23.6965 20.651 24.0307 20.7405 24.277 20.7988C24.5233 20.8571 24.8865 20.939 25.3666 21.0446C25.8467 21.1501 26.2526 21.2165 26.5842 21.2437C26.9158 21.271 27.3071 21.2911 27.7581 21.3041C28.2091 21.3171 28.5933 21.2775 28.9107 21.1854C29.2281 21.0933 29.546 20.9705 29.8645 20.817C30.1829 20.6635 30.4511 20.4388 30.669 20.1429C30.887 19.847 31.0499 19.4978 31.1577 19.0953Z" fill="#F7ED00"/>
</g>
<defs>
<clipPath id="clip0_1_128">
<rect width="40" height="36.6667" fill="white" transform="translate(10) rotate(15)"/>
</clipPath>
</defs>
</svg>
