<svg width="40" height="43" viewBox="0 0 40 43" fill="none" xmlns="http://www.w3.org/2000/svg">
<path d="M20 0L39 20H1L20 0L39 20H1L20 0Z" fill="white"/>
<path d="M12.5 43H27.5V23H12.5V43Z" fill="#F7ED00"/>
<path d="M23.3327 35.1442C23.3327 33.1967 22.2777 32.5442 20.2402 32.2258C18.7368 31.9817 18.4468 31.5892 18.4468 30.7967C18.4468 30.0483 18.9543 29.515 19.9368 29.515C20.9327 29.515 21.4535 29.9517 21.6118 30.9733H23.0885C22.9502 29.4258 22.1527 28.5067 20.8202 28.24V26.5H19.3368V28.2108C17.866 28.4483 16.9168 29.5442 16.9168 30.9592C16.9168 32.7817 17.8993 33.4925 19.9693 33.8033C21.3743 34.0633 21.7768 34.4033 21.7768 35.3C21.7768 36.1967 21.0968 36.7967 20.141 36.7967C18.6702 36.7967 18.321 35.9817 18.216 34.9967H16.666C16.7718 36.6108 17.5493 37.8258 19.3435 38.1V39.8333H20.8268V38.1C22.3577 37.8258 23.3327 36.6258 23.3327 35.1442Z" fill="#0A0B0D"/>
</svg>
